HIERARCHY
ROOT pelvis
{
	OFFSET 0.003123 -0.351407 0.012037
	CHANNELS 6 Xposition Yposition Zposition Zrotation Yrotation Xrotation 
	JOINT left_hip
	{
		OFFSET 0.058189 -0.092763 -0.026001
		CHANNELS 3 Zrotation Yrotation Xrotation
		JOINT left_knee
		{
			OFFSET 0.054695 -0.378753 -0.009396
			CHANNELS 3 Zrotation Yrotation Xrotation
			JOINT left_ankle
			{
				OFFSET -0.043453 -0.403059 -0.031876
				CHANNELS 3 Zrotation Yrotation Xrotation
				JOINT left_foot
				{
					OFFSET 0.047257 -0.057997 0.118216
					CHANNELS 3 Zrotation Yrotation Xrotation
					End Site
					{
						OFFSET 0.000000 0.000000 0.000000
					}
				}
			}
		}
	}
	JOINT right_hip
	{
		OFFSET -0.063267 -0.103908 -0.021250
		CHANNELS 3 Zrotation Yrotation Xrotation
		JOINT right_knee
		{
			OFFSET -0.044210 -0.362380 -0.016824
			CHANNELS 3 Zrotation Yrotation Xrotation
			JOINT right_ankle
			{
				OFFSET 0.015417 -0.410728 -0.020192
				CHANNELS 3 Zrotation Yrotation Xrotation
				JOINT right_foot
				{
					OFFSET -0.038812 -0.058328 0.119049
					CHANNELS 3 Zrotation Yrotation Xrotation
					End Site
					{
						OFFSET 0.000000 0.000000 0.000000
					}
				}
			}
		}
	}
	JOINT spine_1
	{
		OFFSET -0.002763 0.109891 -0.027618
		CHANNELS 3 Zrotation Yrotation Xrotation
		JOINT spine_2
		{
			OFFSET 0.009448 0.131853 -0.005940
			CHANNELS 3 Zrotation Yrotation Xrotation
			JOINT spine_3
			{
				OFFSET -0.011330 0.052235 0.028447
				CHANNELS 3 Zrotation Yrotation Xrotation
				JOINT neck
				{
					OFFSET -0.012164 0.165167 -0.031615
					CHANNELS 3 Zrotation Yrotation Xrotation
					JOINT head
					{
						OFFSET 0.024783 0.160452 0.020737
						CHANNELS 3 Zrotation Yrotation Xrotation
						End Site
						{
							OFFSET 0.000000 0.000000 0.000000
						}
					}
				}
				JOINT left_collar
				{
					OFFSET 0.046364 0.084944 -0.007220
					CHANNELS 3 Zrotation Yrotation Xrotation
					JOINT left_shoulder
					{
						OFFSET 0.119239 0.057728 -0.015461
						CHANNELS 3 Zrotation Yrotation Xrotation
						JOINT left_elbow
						{
							OFFSET 0.254123 -0.072151 -0.042459
							CHANNELS 3 Zrotation Yrotation Xrotation
							JOINT left_wrist
							{
								OFFSET 0.251987 0.023221 -0.002472
								CHANNELS 3 Zrotation Yrotation Xrotation
								JOINT left_index_1
								{
									OFFSET 0.101902 -0.008688 0.019351
									CHANNELS 3 Zrotation Yrotation Xrotation
									JOINT left_index_2
									{
										OFFSET 0.030149 -0.011154 0.001151
										CHANNELS 3 Zrotation Yrotation Xrotation
										JOINT left_index_3
										{
											OFFSET 0.006504 -0.021577 -0.002433
											CHANNELS 3 Zrotation Yrotation Xrotation
											End Site
											{
												OFFSET 0.000000 0.000000 0.000000
											}
										}
									}
								}
								JOINT left_middle_1
								{
									OFFSET 0.109398 -0.006328 -0.003981
									CHANNELS 3 Zrotation Yrotation Xrotation
									JOINT left_middle_2
									{
										OFFSET 0.026472 -0.015218 -0.004641
										CHANNELS 3 Zrotation Yrotation Xrotation
										JOINT left_middle_3
										{
											OFFSET 0.005022 -0.023347 -0.001911
											CHANNELS 3 Zrotation Yrotation Xrotation
											End Site
											{
												OFFSET 0.000000 0.000000 0.000000
											}
										}
									}
								}
								JOINT left_pinky_1
								{
									OFFSET 0.084047 -0.014539 -0.043750
									CHANNELS 3 Zrotation Yrotation Xrotation
									JOINT left_pinky_2
									{
										OFFSET 0.012124 -0.014448 -0.005375
										CHANNELS 3 Zrotation Yrotation Xrotation
										JOINT left_pinky_3
										{
											OFFSET 0.003798 -0.018853 0.000167
											CHANNELS 3 Zrotation Yrotation Xrotation
											End Site
											{
												OFFSET 0.000000 0.000000 0.000000
											}
										}
									}
								}
								JOINT left_ring_1
								{
									OFFSET 0.097444 -0.009268 -0.027345
									CHANNELS 3 Zrotation Yrotation Xrotation
									JOINT left_ring_2
									{
										OFFSET 0.023561 -0.016057 -0.001895
										CHANNELS 3 Zrotation Yrotation Xrotation
										JOINT left_ring_3
										{
											OFFSET 0.004257 -0.023548 0.000814
											CHANNELS 3 Zrotation Yrotation Xrotation
											End Site
											{
												OFFSET 0.000000 0.000000 0.000000
											}
										}
									}
								}
								JOINT left_thumb_1
								{
									OFFSET 0.040636 -0.017977 0.025611
									CHANNELS 3 Zrotation Yrotation Xrotation
									JOINT left_thumb_2
									{
										OFFSET 0.021637 -0.017639 0.011623
										CHANNELS 3 Zrotation Yrotation Xrotation
										JOINT left_thumb_3
										{
											OFFSET 0.024002 -0.008356 0.006548
											CHANNELS 3 Zrotation Yrotation Xrotation
											End Site
											{
												OFFSET 0.000000 0.000000 0.000000
											}
										}
									}
								}
							}
						}
					}
				}
				JOINT right_collar
				{
					OFFSET -0.047695 0.084339 -0.013400
					CHANNELS 3 Zrotation Yrotation Xrotation
					JOINT right_shoulder
					{
						OFFSET -0.102578 0.053524 -0.012669
						CHANNELS 3 Zrotation Yrotation Xrotation
						JOINT right_elbow
						{
							OFFSET -0.271150 -0.036492 -0.026467
							CHANNELS 3 Zrotation Yrotation Xrotation
							JOINT right_wrist
							{
								OFFSET -0.249267 -0.004533 -0.015325
								CHANNELS 3 Zrotation Yrotation Xrotation
								JOINT right_index_1
								{
									OFFSET -0.099881 -0.011783 0.019600
									CHANNELS 3 Zrotation Yrotation Xrotation
									JOINT right_index_2
									{
										OFFSET -0.030148 -0.011154 0.001151
										CHANNELS 3 Zrotation Yrotation Xrotation
										JOINT right_index_3
										{
											OFFSET -0.006505 -0.021577 -0.002432
											CHANNELS 3 Zrotation Yrotation Xrotation
											End Site
											{
												OFFSET 0.000000 0.000000 0.000000
											}
										}
									}
								}
								JOINT right_middle_1
								{
									OFFSET -0.107376 -0.009422 -0.003734
									CHANNELS 3 Zrotation Yrotation Xrotation
									JOINT right_middle_2
									{
										OFFSET -0.026472 -0.015218 -0.004641
										CHANNELS 3 Zrotation Yrotation Xrotation
										JOINT right_middle_3
										{
											OFFSET -0.005022 -0.023347 -0.001911
											CHANNELS 3 Zrotation Yrotation Xrotation
											End Site
											{
												OFFSET 0.000000 0.000000 0.000000
											}
										}
									}
								}
								JOINT right_pinky_1
								{
									OFFSET -0.082027 -0.017634 -0.043503
									CHANNELS 3 Zrotation Yrotation Xrotation
									JOINT right_pinky_2
									{
										OFFSET -0.012123 -0.014448 -0.005374
										CHANNELS 3 Zrotation Yrotation Xrotation
										JOINT right_pinky_3
										{
											OFFSET -0.003798 -0.018852 0.000167
											CHANNELS 3 Zrotation Yrotation Xrotation
											End Site
											{
												OFFSET 0.000000 0.000000 0.000000
											}
										}
									}
								}
								JOINT right_ring_1
								{
									OFFSET -0.095423 -0.012362 -0.027099
									CHANNELS 3 Zrotation Yrotation Xrotation
									JOINT right_ring_2
									{
										OFFSET -0.023561 -0.016057 -0.001895
										CHANNELS 3 Zrotation Yrotation Xrotation
										JOINT right_ring_3
										{
											OFFSET -0.004257 -0.023548 0.000816
											CHANNELS 3 Zrotation Yrotation Xrotation
											End Site
											{
												OFFSET 0.000000 0.000000 0.000000
											}
										}
									}
								}
								JOINT right_thumb_1
								{
									OFFSET -0.038613 -0.021074 0.025861
									CHANNELS 3 Zrotation Yrotation Xrotation
									JOINT right_thumb_2
									{
										OFFSET -0.021636 -0.017639 0.011623
										CHANNELS 3 Zrotation Yrotation Xrotation
										JOINT right_thumb_3
										{
											OFFSET -0.024004 -0.008353 0.006547
											CHANNELS 3 Zrotation Yrotation Xrotation
											End Site
											{
												OFFSET 0.000000 0.000000 0.000000
											}
										}
									}
								}
							}
						}
					}
				}
			}
		}
	}
}
MOTION
Frames: 7
Frame Time: 0.050000
0.004031 0.931753 0.030945 0.064673 -2.284277 -5.015216 3.190222 0.899433 7.811664 -1.691944 -0.029391 1.895350 0.824260 -1.126816 -3.512209 0.000000 0.000000 0.000000 -1.363461 -0.567983 5.836380 -1.993185 0.398188 5.465710 0.243992 7.720156 -8.611063 0.000000 0.000000 0.000000 -1.289418 -0.800161 12.052279 -6.186993 -1.133305 -16.411496 10.106969 -2.149395 26.115377 1.863927 0.614754 -6.027917 0.000000 0.000000 0.000000 5.360423 -8.924426 4.226319 -30.709287 -43.527433 -5.746781 27.670586 -36.991047 -4.869579 13.427312 -8.047852 -17.572082 -4.168949 -0.206671 0.187361 -6.460917 2.828946 8.841773 0.000000 0.000000 0.000000 -7.745394 -9.577894 -5.228145 -13.290804 -1.046977 -3.391342 0.000000 0.000000 0.000000 8.661536 -16.861993 -22.502177 -4.536501 -0.266111 -0.697664 0.000000 0.000000 0.000000 -9.368791 -12.317843 -6.905598 -5.641300 -2.786830 -8.065880 0.000000 0.000000 0.000000 22.222845 29.712767 19.913108 -12.661092 -18.999594 -1.821639 0.000000 0.000000 0.000000 -3.463737 -1.007583 -0.044762 61.741170 9.770095 -4.428776 12.930637 38.913690 3.436265 11.810355 -3.494866 20.060870 22.953241 -7.253017 1.098886 28.370787 -14.611977 8.640621 0.000000 0.000000 0.000000 21.932577 0.486354 -5.017833 44.028233 -5.274769 -6.575024 0.000000 0.000000 0.000000 11.527578 18.882401 -19.283648 39.322956 4.078730 -14.575147 0.000000 0.000000 0.000000 22.926858 6.644324 -5.909696 44.299186 2.149340 -10.419164 0.000000 0.000000 0.000000 1.531005 -30.728837 30.661906 -6.641516 12.074629 -6.903777 0.000000 0.000000 0.000000 
0.001793 0.932076 0.030945 0.250963 -2.804105 -4.810425 2.168553 0.972549 7.703043 -0.118540 -0.175598 1.744237 1.093146 -0.422306 -3.418186 0.000000 0.000000 0.000000 -2.076955 -0.408785 4.970326 -0.904964 0.342132 6.454604 0.348177 8.186494 -8.740968 0.000000 0.000000 0.000000 -1.748098 -0.757855 11.679716 -6.623056 -0.965870 -16.308333 10.311817 -1.989625 25.976521 1.062807 0.646479 -5.599571 0.000000 0.000000 0.000000 4.253459 -7.055864 3.419015 -31.684369 -37.011567 -5.544889 27.877568 -40.248308 -5.372716 13.280798 -7.574990 -16.405547 -4.533262 -0.767006 0.071658 -0.031485 2.365170 9.705224 0.000000 0.000000 0.000000 -7.170927 -9.436811 -5.208059 -9.059190 -0.422340 -1.999571 0.000000 0.000000 0.000000 12.200168 -16.309565 -21.760579 -4.854816 0.683961 2.463834 0.000000 0.000000 0.000000 -8.232516 -11.949404 -6.917519 -0.241138 -1.197602 -5.299322 0.000000 0.000000 0.000000 23.685035 28.807566 18.675144 -14.726442 -18.042449 -0.641836 0.000000 0.000000 0.000000 -2.367546 -0.880963 -0.122584 60.943300 9.180992 -4.689242 14.661200 38.328347 3.854128 9.691145 -2.187710 23.174906 19.221789 -7.500936 1.504382 27.064486 -15.045487 8.937096 0.000000 0.000000 0.000000 18.570089 2.602276 -5.150350 46.804198 -5.473605 -8.390538 0.000000 0.000000 0.000000 3.771104 28.231151 -23.061386 42.600829 7.497791 -23.480595 0.000000 0.000000 0.000000 19.927888 9.418006 -6.517066 51.875776 3.505391 -13.934108 0.000000 0.000000 0.000000 2.470853 -30.022398 29.489946 -7.291740 11.553319 -7.008587 0.000000 0.000000 0.000000 
-0.002211 0.931270 0.033585 -0.262857 -2.021709 -4.736280 3.321966 0.879533 7.794108 -0.484479 -0.131560 1.672319 0.888531 -1.182275 -3.730001 0.000000 0.000000 0.000000 -1.093687 -0.569316 5.589475 -1.003635 0.320452 5.801244 0.071903 7.531172 -8.899417 0.000000 0.000000 0.000000 -1.214376 -0.781507 11.650551 -6.979568 -0.899464 -16.704518 11.055125 -1.533936 26.344842 1.409757 0.576382 -5.352445 0.000000 0.000000 0.000000 3.824495 -7.451382 3.636533 -32.899198 -30.474419 -5.609505 28.562711 -43.434298 -6.248659 13.360756 -7.837568 -15.055166 -4.328713 -4.118354 -0.761946 -4.043413 1.337186 3.930251 0.000000 0.000000 0.000000 -9.218025 -12.509374 -6.547224 -7.842101 -0.698203 -3.350633 0.000000 0.000000 0.000000 11.359769 -16.730295 -22.060782 -5.611369 -0.622133 -1.766698 0.000000 0.000000 0.000000 -8.834726 -11.579536 -6.658928 -3.704569 -3.852635 -13.583732 0.000000 0.000000 0.000000 20.465070 25.986029 15.649177 -14.380239 -16.539887 -0.394267 0.000000 0.000000 0.000000 -2.650062 -1.734786 -0.534116 61.483124 8.702447 -4.593680 14.115645 36.674520 3.518410 10.015936 -1.133270 23.433144 21.482382 -9.430683 1.717873 32.161616 -13.196098 4.463717 0.000000 0.000000 0.000000 21.499634 0.497411 -4.982503 47.800252 -3.192889 -11.369775 0.000000 0.000000 0.000000 9.774611 30.297090 -24.690683 36.355148 5.471793 -23.728600 0.000000 0.000000 0.000000 23.523112 10.545686 -7.223622 48.187229 3.538392 -14.435002 0.000000 0.000000 0.000000 5.865547 -30.130332 28.968387 -10.563555 10.347396 -8.107736 0.000000 0.000000 0.000000 
-0.003507 0.930786 0.037544 -0.710445 -0.267668 -5.208758 3.898314 0.758048 7.380206 -0.047770 -0.366943 3.440881 0.735283 -2.492594 -4.690518 0.000000 0.000000 0.000000 -0.111813 -0.807241 6.723843 -1.348608 0.347253 5.617960 -0.487852 5.983613 -9.036739 0.000000 0.000000 0.000000 -0.621197 -0.781401 11.322465 -7.026623 -0.539183 -15.724594 11.142219 -1.579883 25.859329 1.999668 0.453844 -4.971119 0.000000 0.000000 0.000000 3.312217 -6.500930 3.235048 -34.146126 -26.519571 -5.734456 25.335138 -46.290988 -5.513150 13.572028 -8.276164 -13.873706 -8.395911 -1.957315 0.086650 -18.856282 3.213782 5.542439 0.000000 0.000000 0.000000 -15.048758 -11.616569 -6.092373 -16.275499 -2.307386 -7.978229 0.000000 0.000000 0.000000 8.113092 -20.486006 -27.522596 -12.206790 -1.588108 -3.915187 0.000000 0.000000 0.000000 -13.769104 -15.337355 -7.963595 -9.304667 -5.422271 -15.154609 0.000000 0.000000 0.000000 21.586089 30.382073 21.819035 -11.362620 -21.592295 -2.950542 0.000000 0.000000 0.000000 -3.203060 -1.602125 -0.434492 61.797546 6.199260 -5.294500 14.307978 37.821807 3.775290 9.607902 -2.181474 22.031006 20.007432 -4.320096 0.567072 29.531526 -7.966382 0.131683 0.000000 0.000000 0.000000 17.938455 5.878485 -6.429237 40.765249 -1.581404 -12.285069 0.000000 0.000000 0.000000 2.559285 29.405609 -26.656550 39.359362 4.742611 -15.598610 0.000000 0.000000 0.000000 19.749803 12.893317 -8.082226 41.186766 4.896763 -17.736524 0.000000 0.000000 0.000000 0.019247 -28.765331 28.994403 -8.693514 13.083603 -8.211757 0.000000 0.000000 0.000000 
-0.006098 0.930786 0.041504 -0.488222 -0.018232 -5.225956 4.215763 0.741832 7.494530 -0.649069 -0.325224 3.680845 0.522643 -2.826004 -4.512579 0.000000 0.000000 0.000000 0.181195 -0.797570 6.411637 -1.903728 0.464372 6.731793 -0.805020 5.589059 -9.535379 0.000000 0.000000 0.000000 -1.087587 -0.787461 11.797912 -6.897787 -0.797772 -16.564177 11.502974 -1.109556 26.381937 2.603523 0.331719 -4.690486 0.000000 0.000000 0.000000 1.579920 -4.329467 2.190981 -35.261352 -18.921914 -5.998551 22.861071 -53.243785 -5.357302 12.896706 -9.566023 -13.527402 -6.166180 -0.990345 0.105605 -9.251313 2.644765 6.460920 0.000000 0.000000 0.000000 -9.706914 -10.982800 -5.978771 -14.189342 -2.178567 -7.930166 0.000000 0.000000 0.000000 12.321698 -19.492742 -26.422801 -7.356452 -1.138025 -3.307098 0.000000 0.000000 0.000000 -8.266174 -15.464404 -8.994309 -6.749347 -4.894125 -15.506774 0.000000 0.000000 0.000000 20.841408 29.377315 20.853665 -10.851708 -21.556615 -3.042999 0.000000 0.000000 0.000000 -2.297332 -1.838616 -0.679748 61.806272 4.694556 -5.749602 12.683224 38.575139 3.431426 10.125119 -0.948062 18.932765 21.361377 -4.129427 0.584718 22.616671 -6.865588 2.017728 0.000000 0.000000 0.000000 20.274703 5.283175 -6.463158 34.188006 -1.710641 -9.381081 0.000000 0.000000 0.000000 8.953668 22.488274 -23.220049 32.685470 3.991067 -14.671903 0.000000 0.000000 0.000000 22.286337 9.835415 -7.020554 36.925810 2.932626 -11.763980 0.000000 0.000000 0.000000 2.910781 -28.642141 28.382925 -6.205688 11.428372 -6.431566 0.000000 0.000000 0.000000 
-0.005744 0.929980 0.038864 0.159127 -0.010624 -4.738444 3.386917 0.674163 6.328877 -0.597557 -0.414916 4.487866 0.701239 -2.574236 -4.679514 0.000000 0.000000 0.000000 -0.265598 -0.608543 5.192914 -2.350847 0.566334 7.639976 -1.120769 5.348587 -10.172257 0.000000 0.000000 0.000000 -1.347734 -0.796090 12.238269 -7.379261 -0.580073 -16.433787 11.630155 -0.647135 26.113107 1.778340 0.520739 -5.105091 0.000000 0.000000 0.000000 1.162029 -2.971896 1.530164 -37.046527 -13.408320 -6.263463 21.490498 -58.758437 -5.339599 12.618353 -8.528176 -14.609544 -6.365054 -2.541182 -0.224662 -14.159915 1.569302 2.225671 0.000000 0.000000 0.000000 -11.226932 -12.759067 -6.686235 -11.900650 -2.297927 -8.616113 0.000000 0.000000 0.000000 12.158788 -20.297772 -28.154143 -7.259773 -1.039668 -3.013745 0.000000 0.000000 0.000000 -9.741184 -15.502796 -8.804499 -4.038717 -4.268955 -15.010505 0.000000 0.000000 0.000000 20.763055 27.536939 17.650369 -12.701488 -17.962800 -1.568674 0.000000 0.000000 0.000000 -1.673585 -2.328726 -1.008408 61.123513 4.869720 -5.474832 12.830978 38.652232 3.491246 10.206867 1.120986 20.280431 18.585156 -3.692940 0.648289 19.095182 -7.356218 3.921352 0.000000 0.000000 0.000000 18.353821 5.730915 -6.329385 33.261997 -0.951353 -11.172734 0.000000 0.000000 0.000000 9.215032 22.173826 -22.375692 28.497250 3.929620 -19.728866 0.000000 0.000000 0.000000 20.979004 10.778785 -7.353001 34.934824 3.316641 -14.141806 0.000000 0.000000 0.000000 1.437207 -28.173976 27.908622 -4.794117 12.632999 -6.226296 0.000000 0.000000 0.000000 
-0.008218 0.929497 0.038864 -0.237117 1.410407 -4.204665 4.121443 0.491064 5.372788 -0.538844 -0.458648 4.794346 0.372860 -3.688410 -4.963542 0.000000 0.000000 0.000000 0.102924 -0.640573 5.137211 -1.547592 0.436824 6.989809 -1.435310 4.110579 -9.978749 0.000000 0.000000 0.000000 -0.571977 -0.780823 11.478210 -7.728002 -0.448552 -16.677211 11.819103 0.016491 26.626016 1.884888 0.563547 -5.300753 0.000000 0.000000 0.000000 1.436650 -3.218755 1.684336 -38.594874 -9.271192 -6.772056 14.545601 -64.502486 -1.968630 13.406866 -9.509786 -14.755970 -9.183087 -5.052127 -0.427217 -20.783256 2.248275 2.579428 0.000000 0.000000 0.000000 -15.234218 -12.878707 -6.554851 -16.704572 -2.475052 -8.603202 0.000000 0.000000 0.000000 8.580517 -18.563495 -24.975343 -14.515225 -5.497484 -13.157690 0.000000 0.000000 0.000000 -12.472472 -13.833147 -7.456688 -15.808607 -8.761296 -19.567772 0.000000 0.000000 0.000000 20.691227 27.764611 17.809647 -14.043002 -20.483047 -1.610903 0.000000 0.000000 0.000000 -1.919440 -4.687481 -2.203876 61.188552 4.829881 -4.963295 15.200594 37.810495 4.157355 7.552886 0.058027 20.273813 18.160139 -6.197919 1.360919 19.214189 -7.599348 4.671280 0.000000 0.000000 0.000000 16.840219 3.115545 -4.830551 33.259622 -1.754715 -9.617659 0.000000 0.000000 0.000000 1.822686 23.009394 -21.050889 41.687022 7.639363 -20.997514 0.000000 0.000000 0.000000 17.345104 8.686757 -6.058736 40.711722 4.070560 -14.691554 0.000000 0.000000 0.000000 -2.094631 -28.775096 28.636801 -2.819422 13.624035 -5.663066 0.000000 0.000000 0.000000 
